<?xml version="1.0" standalone="no"?>
<!DOCTYPE svg PUBLIC "-//W3C//DTD SVG 20010904//EN"
 "http://www.w3.org/TR/2001/REC-SVG-20010904/DTD/svg10.dtd">
<svg version="1.0" xmlns="http://www.w3.org/2000/svg"
 width="757.000000pt" height="757.000000pt" viewBox="0 0 757.000000 757.000000"
 preserveAspectRatio="xMidYMid meet">
<metadata>
Created by potrace 1.11, written by Peter Selinger 2001-2013
</metadata>
<g transform="translate(0.000000,757.000000) scale(0.100000,-0.100000)"
fill="#000000" stroke="none">
<path d="M9 7541 c0 -14 -1 -1715 -2 -3778 -1 -2495 1 -3754 8 -3756 6 -2
1706 -3 3780 -2 l3770 0 1 3781 0 3781 -3778 1 -3778 0 -1 -27z m7344 -170
c16 -1 17 -67 17 -1246 0 -685 -2 -1245 -5 -1245 -2 0 -28 14 -57 31 -113 67
-422 222 -598 300 -292 129 -507 208 -925 339 -34 11 -370 97 -406 104 -13 3
-89 18 -169 34 -80 17 -161 33 -180 36 -274 43 -304 47 -420 60 -281 32 -456
41 -830 41 -306 0 -473 -6 -605 -20 -22 -2 -67 -7 -100 -10 -33 -3 -80 -8
-105 -11 -25 -3 -58 -7 -75 -9 -196 -23 -586 -92 -715 -125 -19 -5 -46 -11
-60 -13 -137 -24 -611 -170 -875 -269 -295 -112 -705 -301 -944 -437 -41 -23
-76 -39 -79 -36 -4 3 -7 2405 -3 2462 1 6 11 13 24 15 17 2 7045 1 7110 -1z
m-3238 -1636 c210 -9 307 -16 410 -29 17 -2 57 -7 90 -11 33 -3 71 -8 85 -10
14 -2 48 -7 75 -10 28 -3 79 -10 115 -16 36 -6 79 -13 95 -16 111 -17 401 -80
565 -122 594 -151 1158 -376 1693 -673 l127 -71 0 -2279 0 -2278 -3575 0
-3575 0 -1 28 c-1 35 -1 4491 0 4518 1 15 27 35 104 78 242 136 577 294 867
409 138 54 466 170 520 183 8 2 56 15 105 29 245 70 449 118 680 160 44 8 91
17 105 20 14 3 45 8 70 11 25 3 52 7 60 9 41 7 100 16 140 20 25 2 61 6 80 9
149 22 317 34 565 42 105 4 191 7 193 9 3 3 211 -2 407 -10z"/>
<path d="M801 6987 c-6 -16 -11 -32 -11 -36 0 -4 -13 -28 -29 -53 -38 -60
-121 -125 -177 -139 -49 -13 -50 -24 -1 -35 73 -16 172 -109 202 -190 20 -55
35 -77 35 -52 0 34 40 106 81 149 59 60 69 67 130 89 l54 19 -40 16 c-64 26
-80 35 -116 68 -54 51 -69 72 -94 133 -24 58 -24 58 -34 31z m79 -178 c19 -19
45 -42 58 -51 l22 -15 -46 -38 c-25 -21 -59 -55 -74 -76 l-28 -39 -25 33 c-39
50 -59 71 -95 96 l-33 23 29 18 c16 10 51 43 78 74 49 56 49 56 64 34 8 -13
31 -39 50 -59z"/>
<path d="M1365 6660 c-19 -91 -116 -195 -213 -228 l-57 -19 40 -11 c96 -27
186 -112 222 -211 l20 -54 16 48 c35 100 119 182 222 215 l40 13 -45 16 c-114
40 -176 105 -228 241 -9 25 -9 25 -17 -10z m132 -224 l33 -23 -40 -27 c-22
-14 -56 -48 -76 -75 l-37 -50 -27 38 c-15 20 -49 55 -74 77 l-47 41 44 34 c24
18 57 51 73 72 l29 38 44 -51 c24 -28 59 -62 78 -74z"/>
<path d="M2653 4386 c-35 -7 -63 -11 -63 -10 0 1 -27 -8 -61 -21 -215 -85
-319 -229 -321 -448 -2 -98 7 -141 42 -213 31 -64 111 -150 178 -192 34 -22
217 -112 227 -112 2 0 28 -11 57 -24 29 -13 98 -43 153 -66 208 -88 330 -161
388 -231 95 -115 81 -307 -30 -410 -54 -49 -110 -75 -205 -95 -121 -25 -258
-19 -376 18 -87 26 -141 58 -192 114 -60 65 -81 120 -85 220 -2 46 -6 88 -10
94 -7 12 -166 11 -181 -1 -14 -11 -10 -164 6 -234 25 -112 116 -231 229 -299
62 -37 146 -68 236 -87 33 -7 62 -14 64 -15 1 -2 -22 -78 -52 -171 -65 -198
-144 -441 -297 -913 -61 -190 -133 -412 -160 -495 -65 -199 -64 -196 -51 -204
13 -8 189 -6 197 2 3 3 32 87 64 187 31 100 62 185 68 189 18 11 840 7 851 -4
5 -6 35 -89 65 -185 31 -96 62 -179 69 -185 12 -8 126 -12 185 -6 20 2 15 28
-57 246 -63 189 -232 710 -408 1250 -35 110 -73 224 -83 253 l-18 52 53 15
c101 30 195 85 260 153 37 38 93 127 100 159 3 10 9 36 14 58 14 54 14 162 0
227 -16 74 -49 136 -110 202 -93 102 -228 178 -542 307 -362 149 -443 215
-451 372 -12 218 135 338 414 337 173 0 308 -47 390 -136 66 -71 87 -126 95
-244 2 -30 4 -58 4 -62 2 -14 188 -9 193 5 6 17 2 134 -7 187 -4 25 -22 77
-41 117 -65 137 -209 244 -389 289 -88 22 -324 27 -412 10z m436 -2648 c100
-315 182 -579 181 -585 0 -19 -740 -19 -740 0 0 14 25 96 221 710 79 246 146
447 149 447 3 0 88 -258 189 -572z"/>
<path d="M4210 4376 c-180 -54 -296 -156 -350 -310 -24 -67 -37 -260 -20 -281
14 -16 182 -17 192 -1 4 6 8 45 8 87 0 152 60 256 177 311 84 40 216 50 304
24 169 -50 260 -191 236 -366 -10 -72 -72 -203 -150 -320 -48 -71 -472 -604
-674 -847 l-93 -112 0 -80 c0 -92 -2 -91 103 -89 37 0 71 -2 75 -6 4 -4 7
-408 7 -897 0 -680 3 -892 12 -897 16 -10 763 -8 833 3 80 11 187 52 251 96
139 94 211 241 212 429 0 213 -77 355 -248 455 l-66 38 60 34 c115 65 194 168
221 289 14 62 10 215 -7 274 -50 169 -180 291 -358 334 -95 24 -102 24 -472
25 -205 1 -353 5 -353 10 0 5 39 56 86 113 47 56 94 112 103 123 9 11 57 70
107 130 49 61 128 157 175 215 46 58 86 107 90 110 3 3 41 55 84 115 148 206
215 375 210 530 -4 138 -45 233 -138 326 -55 55 -105 87 -183 117 -72 29 -105
34 -239 37 -101 3 -132 0 -195 -19z m618 -1995 c115 -24 204 -92 251 -191 23
-48 26 -68 26 -155 -1 -83 -4 -108 -23 -145 -43 -85 -127 -154 -222 -181 -44
-13 -557 -24 -607 -13 l-23 4 0 344 0 345 23 3 c56 8 529 -1 575 -11z m62
-884 c110 -43 183 -118 220 -227 18 -54 21 -80 17 -151 -10 -194 -124 -319
-312 -346 -22 -3 -161 -5 -310 -6 l-270 0 -3 364 c-1 200 0 370 3 377 4 11 64
13 307 10 258 -3 310 -6 348 -21z"/>
<path d="M593 4373 c-10 -4 -13 -391 -13 -1893 0 -1790 1 -1888 17 -1892 31
-7 1211 -3 1219 4 9 10 9 157 -1 166 -3 4 -235 7 -513 8 -279 1 -510 2 -513 3
-3 0 -6 526 -6 1168 l0 1166 41 45 c22 25 57 62 76 82 19 20 64 67 99 104 52
57 65 66 76 55 7 -8 56 -79 110 -159 54 -80 121 -179 150 -220 28 -41 96 -140
150 -220 227 -334 266 -389 283 -393 9 -3 57 -5 105 -5 66 -1 89 3 93 13 5 12
-60 112 -371 570 -244 359 -376 556 -381 568 -2 7 6 25 18 38 13 14 38 43 57
65 19 21 55 62 80 90 55 61 74 82 215 244 60 69 114 130 120 135 46 43 201
230 201 243 0 15 -14 17 -100 18 l-99 1 -36 -36 c-20 -20 -76 -81 -125 -135
-50 -55 -97 -107 -105 -116 -39 -41 -207 -225 -221 -242 -22 -25 -159 -174
-200 -219 -88 -94 -215 -233 -220 -241 -4 -6 -9 -6 -12 -2 -2 5 -5 226 -5 491
0 264 -3 486 -6 491 -6 10 -157 13 -183 5z"/>
<path d="M6287 2594 c-1 -1 -32 -4 -68 -8 -131 -12 -284 -75 -358 -147 -95
-95 -133 -190 -134 -339 -2 -254 105 -375 466 -526 34 -14 76 -32 92 -39 17
-8 59 -26 95 -40 183 -76 325 -160 384 -227 101 -115 91 -309 -21 -414 -78
-74 -173 -105 -335 -109 -185 -5 -329 39 -427 130 -66 61 -92 125 -99 238 -3
48 -9 90 -14 93 -13 9 -163 8 -176 0 -11 -7 -9 -175 3 -229 36 -171 176 -307
379 -372 92 -30 171 -40 311 -39 227 1 399 58 511 171 104 104 146 214 140
367 -6 133 -33 199 -122 295 -94 102 -247 189 -531 301 -356 142 -445 214
-460 373 -11 120 50 237 148 288 122 62 352 70 499 18 92 -32 186 -115 221
-193 21 -50 27 -80 30 -157 2 -44 6 -60 18 -63 27 -8 157 -5 171 4 18 11 15
149 -5 224 -23 86 -62 153 -129 218 -121 118 -282 174 -524 181 -35 2 -64 2
-65 1z"/>
</g>
</svg>
